<svg width="372" height="271" viewBox="0 0 372 271" fill="none" xmlns="http://www.w3.org/2000/svg">
<g filter="url(#filter0_d_128_45)">
<rect x="131.337" y="165" width="172" height="81" fill="#00F0FF"/>
<path d="M143.834 188.562V183.585H150.26V188.562H143.834ZM143.834 210.927V205.95H150.26V210.927H143.834ZM156.938 199.146V195.366H162.671V199.146H156.938ZM162.671 195.366H156.938C156.938 193.182 156.329 191.502 155.111 190.326C153.935 189.15 152.297 188.562 150.197 188.562V183.585C152.675 183.585 154.838 184.089 156.686 185.097C158.576 186.063 160.046 187.449 161.096 189.255C162.146 191.019 162.671 193.056 162.671 195.366ZM162.671 199.083C162.671 201.435 162.146 203.493 161.096 205.257C160.046 207.021 158.576 208.407 156.686 209.415C154.838 210.423 152.675 210.927 150.197 210.927V205.95C152.297 205.95 153.935 205.341 155.111 204.123C156.329 202.905 156.938 201.225 156.938 199.083H162.671ZM140.117 228V183.585H145.85V228H140.117ZM185.303 217.164V194.358H191.036V217.164H185.303ZM166.151 217.164V194.358H171.884V217.164H166.151ZM191.036 194.421H185.303C185.303 192.237 184.694 190.557 183.476 189.381C182.3 188.205 180.662 187.617 178.562 187.617V182.64C181.04 182.64 183.203 183.144 185.051 184.152C186.941 185.118 188.411 186.504 189.461 188.31C190.511 190.074 191.036 192.111 191.036 194.421ZM166.151 194.421C166.151 192.111 166.676 190.074 167.726 188.31C168.776 186.504 170.246 185.118 172.136 184.152C174.026 183.144 176.189 182.64 178.625 182.64V187.617C176.525 187.617 174.866 188.205 173.648 189.381C172.472 190.557 171.884 192.237 171.884 194.421H166.151ZM191.036 217.101C191.036 219.453 190.511 221.511 189.461 223.275C188.411 225.039 186.941 226.425 185.051 227.433C183.203 228.441 181.04 228.945 178.562 228.945V223.968C180.662 223.968 182.3 223.38 183.476 222.204C184.694 220.986 185.303 219.285 185.303 217.101H191.036ZM166.151 217.101H171.884C171.884 219.285 172.472 220.986 173.648 222.204C174.866 223.38 176.525 223.968 178.625 223.968V228.945C176.189 228.945 174.026 228.441 172.136 227.433C170.246 226.425 168.776 225.039 167.726 223.275C166.676 221.511 166.151 219.453 166.151 217.101ZM197.014 228V183.585H202.747V228H197.014ZM207.815 223.023L226.148 188.562H232.196L213.926 223.023H207.815ZM207.815 228V223.023H232.196V228H207.815ZM207.815 188.562V183.585H232.196V188.562H207.815ZM255.43 217.164V194.358H261.163V217.164H255.43ZM236.278 217.164V194.358H242.011V217.164H236.278ZM261.163 194.421H255.43C255.43 192.237 254.821 190.557 253.603 189.381C252.427 188.205 250.789 187.617 248.689 187.617V182.64C251.167 182.64 253.33 183.144 255.178 184.152C257.068 185.118 258.538 186.504 259.588 188.31C260.638 190.074 261.163 192.111 261.163 194.421ZM236.278 194.421C236.278 192.111 236.803 190.074 237.853 188.31C238.903 186.504 240.373 185.118 242.263 184.152C244.153 183.144 246.316 182.64 248.752 182.64V187.617C246.652 187.617 244.993 188.205 243.775 189.381C242.599 190.557 242.011 192.237 242.011 194.421H236.278ZM261.163 217.101C261.163 219.453 260.638 221.511 259.588 223.275C258.538 225.039 257.068 226.425 255.178 227.433C253.33 228.441 251.167 228.945 248.689 228.945V223.968C250.789 223.968 252.427 223.38 253.603 222.204C254.821 220.986 255.43 219.285 255.43 217.101H261.163ZM236.278 217.101H242.011C242.011 219.285 242.599 220.986 243.775 222.204C244.993 223.38 246.652 223.968 248.752 223.968V228.945C246.316 228.945 244.153 228.441 242.263 227.433C240.373 226.425 238.903 225.039 237.853 223.275C236.803 221.511 236.278 219.453 236.278 217.101ZM285.348 228L267.582 183.585H273.189L290.955 228H285.348ZM266.511 228V183.585H272.244V228H266.511ZM286.86 228V183.585H292.593V228H286.86Z" fill="black"/>
<line x1="187.923" y1="197.932" x2="168.923" y2="213.536" stroke="black" stroke-width="5"/>
</g>
<g filter="url(#filter1_d_128_45)">
<rect x="186.337" y="84" width="172" height="81" fill="#00F0FF"/>
<path d="M198.834 107.562V102.585H205.26V107.562H198.834ZM198.834 129.927V124.95H205.26V129.927H198.834ZM211.938 118.146V114.366H217.671V118.146H211.938ZM217.671 114.366H211.938C211.938 112.182 211.329 110.502 210.111 109.326C208.935 108.15 207.297 107.562 205.197 107.562V102.585C207.675 102.585 209.838 103.089 211.686 104.097C213.576 105.063 215.046 106.449 216.096 108.255C217.146 110.019 217.671 112.056 217.671 114.366ZM217.671 118.083C217.671 120.435 217.146 122.493 216.096 124.257C215.046 126.021 213.576 127.407 211.686 128.415C209.838 129.423 207.675 129.927 205.197 129.927V124.95C207.297 124.95 208.935 124.341 210.111 123.123C211.329 121.905 211.938 120.225 211.938 118.083H217.671ZM195.117 147V102.585H200.85V147H195.117ZM240.303 136.164V113.358H246.036V136.164H240.303ZM221.151 136.164V113.358H226.884V136.164H221.151ZM246.036 113.421H240.303C240.303 111.237 239.694 109.557 238.476 108.381C237.3 107.205 235.662 106.617 233.562 106.617V101.64C236.04 101.64 238.203 102.144 240.051 103.152C241.941 104.118 243.411 105.504 244.461 107.31C245.511 109.074 246.036 111.111 246.036 113.421ZM221.151 113.421C221.151 111.111 221.676 109.074 222.726 107.31C223.776 105.504 225.246 104.118 227.136 103.152C229.026 102.144 231.189 101.64 233.625 101.64V106.617C231.525 106.617 229.866 107.205 228.648 108.381C227.472 109.557 226.884 111.237 226.884 113.421H221.151ZM246.036 136.101C246.036 138.453 245.511 140.511 244.461 142.275C243.411 144.039 241.941 145.425 240.051 146.433C238.203 147.441 236.04 147.945 233.562 147.945V142.968C235.662 142.968 237.3 142.38 238.476 141.204C239.694 139.986 240.303 138.285 240.303 136.101H246.036ZM221.151 136.101H226.884C226.884 138.285 227.472 139.986 228.648 141.204C229.866 142.38 231.525 142.968 233.625 142.968V147.945C231.189 147.945 229.026 147.441 227.136 146.433C225.246 145.425 223.776 144.039 222.726 142.275C221.676 140.511 221.151 138.453 221.151 136.101ZM252.014 147V102.585H257.747V147H252.014ZM262.815 142.023L281.148 107.562H287.196L268.926 142.023H262.815ZM262.815 147V142.023H287.196V147H262.815ZM262.815 107.562V102.585H287.196V107.562H262.815ZM310.43 136.164V113.358H316.163V136.164H310.43ZM291.278 136.164V113.358H297.011V136.164H291.278ZM316.163 113.421H310.43C310.43 111.237 309.821 109.557 308.603 108.381C307.427 107.205 305.789 106.617 303.689 106.617V101.64C306.167 101.64 308.33 102.144 310.178 103.152C312.068 104.118 313.538 105.504 314.588 107.31C315.638 109.074 316.163 111.111 316.163 113.421ZM291.278 113.421C291.278 111.111 291.803 109.074 292.853 107.31C293.903 105.504 295.373 104.118 297.263 103.152C299.153 102.144 301.316 101.64 303.752 101.64V106.617C301.652 106.617 299.993 107.205 298.775 108.381C297.599 109.557 297.011 111.237 297.011 113.421H291.278ZM316.163 136.101C316.163 138.453 315.638 140.511 314.588 142.275C313.538 144.039 312.068 145.425 310.178 146.433C308.33 147.441 306.167 147.945 303.689 147.945V142.968C305.789 142.968 307.427 142.38 308.603 141.204C309.821 139.986 310.43 138.285 310.43 136.101H316.163ZM291.278 136.101H297.011C297.011 138.285 297.599 139.986 298.775 141.204C299.993 142.38 301.652 142.968 303.752 142.968V147.945C301.316 147.945 299.153 147.441 297.263 146.433C295.373 145.425 293.903 144.039 292.853 142.275C291.803 140.511 291.278 138.453 291.278 136.101ZM340.348 147L322.582 102.585H328.189L345.955 147H340.348ZM321.511 147V102.585H327.244V147H321.511ZM341.86 147V102.585H347.593V147H341.86Z" fill="black"/>
<line x1="242.923" y1="116.932" x2="223.923" y2="132.536" stroke="black" stroke-width="5"/>
</g>
<g filter="url(#filter2_d_128_45)">
<rect x="5" y="240.435" width="200" height="81" transform="rotate(-79 5 240.435)" fill="#00F0FF"/>
<path d="M32.8033 220.883L27.9178 219.934L29.1439 213.626L34.0295 214.576L32.8033 220.883ZM54.7574 225.151L49.8719 224.201L51.098 217.893L55.9836 218.843L54.7574 225.151ZM45.6933 210.04L41.9827 209.318L43.0766 203.691L46.7872 204.412L45.6933 210.04ZM43.0766 203.691L41.9827 209.318C39.8388 208.902 38.0735 209.179 36.6867 210.15C35.3079 211.08 34.4182 212.576 34.0175 214.637L29.1319 213.688C29.6047 211.255 30.5122 209.228 31.8543 207.606C33.1632 205.935 34.8042 204.757 36.7774 204.071C38.7093 203.377 40.8091 203.25 43.0766 203.691ZM46.7253 204.4C49.0341 204.849 50.9541 205.757 52.4854 207.124C54.0166 208.491 55.0967 210.199 55.7255 212.247C56.3624 214.253 56.4444 216.472 55.9716 218.905L51.086 217.955C51.4867 215.894 51.2014 214.17 50.2302 212.783C49.267 211.355 47.7341 210.436 45.6314 210.028L46.7253 204.4ZM70.8075 232.057L27.2086 223.583L28.3025 217.955L71.9014 226.43L70.8075 232.057ZM68.7926 185.634L46.4056 181.282L47.4995 175.654L69.8865 180.006L68.7926 185.634ZM65.1382 204.434L42.7512 200.082L43.8451 194.454L66.2321 198.806L65.1382 204.434ZM47.5613 175.666L46.4674 181.294C44.3235 180.877 42.5582 181.155 41.1714 182.126C39.7926 183.056 38.9029 184.552 38.5022 186.613L33.6166 185.663C34.0894 183.231 34.9969 181.204 36.339 179.582C37.6479 177.911 39.2889 176.733 41.2621 176.046C43.194 175.352 45.2938 175.226 47.5613 175.666ZM42.813 200.094C40.5455 199.653 38.6461 198.749 37.1148 197.382C35.5424 196.007 34.4623 194.299 33.8747 192.26C33.2458 190.212 33.1638 187.993 33.6286 185.601L38.5142 186.551C38.1135 188.613 38.3741 190.353 39.2961 191.773C40.2261 193.152 41.7631 194.05 43.9069 194.466L42.813 200.094ZM69.8246 179.994C72.1334 180.443 74.0534 181.351 75.5847 182.718C77.1159 184.085 78.196 185.793 78.8248 187.84C79.4617 189.847 79.5437 192.066 79.0709 194.499L74.1853 193.549C74.586 191.488 74.3214 189.768 73.3914 188.389C72.4281 186.961 70.8746 186.038 68.7307 185.622L69.8246 179.994ZM65.0764 204.422L66.1703 198.794C68.3141 199.211 70.0961 198.958 71.5161 198.036C72.9029 197.065 73.7966 195.549 74.1973 193.487L79.0829 194.437C78.6181 196.828 77.7106 198.855 76.3605 200.518C75.0104 202.181 73.3694 203.36 71.4374 204.054C69.5055 204.748 67.3851 204.871 65.0764 204.422ZM81.664 176.206L38.065 167.731L39.1589 162.103L82.7579 170.578L81.664 176.206ZM78.8394 164.653L48.5096 140.082L49.6636 134.145L80.0054 158.655L78.8394 164.653ZM83.7249 165.603L78.8394 164.653L83.4915 140.72L88.377 141.67L83.7249 165.603ZM45.0115 158.078L40.1259 157.128L44.778 133.195L49.6636 134.145L45.0115 158.078ZM82.1734 116.795L59.7864 112.444L60.8803 106.816L83.2673 111.167L82.1734 116.795ZM78.519 135.595L56.132 131.244L57.2259 125.616L79.6129 129.968L78.519 135.595ZM60.9422 106.828L59.8483 112.456C57.7044 112.039 55.939 112.316 54.5522 113.287C53.1735 114.217 52.2837 115.713 51.883 117.774L46.9975 116.825C47.4703 114.392 48.3777 112.365 49.7198 110.744C51.0287 109.073 52.6697 107.894 54.6429 107.208C56.5749 106.514 58.6746 106.387 60.9422 106.828ZM56.1939 131.256C53.9263 130.815 52.0269 129.911 50.4957 128.544C48.9232 127.168 47.8432 125.461 47.2555 123.421C46.6267 121.374 46.5447 119.154 47.0095 116.763L51.895 117.713C51.4943 119.774 51.755 121.515 52.677 122.935C53.607 124.314 55.1439 125.211 57.2878 125.628L56.1939 131.256ZM83.2055 111.155C85.5143 111.604 87.4343 112.512 88.9655 113.88C90.4968 115.247 91.5768 116.954 92.2057 119.002C92.8425 121.008 92.9245 123.228 92.4517 125.66L87.5662 124.711C87.9669 122.649 87.7022 120.929 86.7722 119.55C85.809 118.122 84.2554 117.2 82.1116 116.783L83.2055 111.155ZM78.4572 135.583L79.5511 129.956C81.695 130.372 83.4769 130.12 84.8969 129.198C86.2837 128.226 87.1775 126.71 87.5782 124.649L92.4637 125.598C91.9989 127.99 91.0915 130.017 89.7414 131.68C88.3913 133.343 86.7502 134.521 84.8183 135.215C82.8863 135.909 80.766 136.032 78.4572 135.583ZM98.5189 89.4948L51.53 98.4596L52.5998 92.9556L99.5887 83.9908L98.5189 89.4948ZM94.9246 107.986L51.3256 99.5109L52.4195 93.8833L96.0185 102.358L94.9246 107.986ZM98.8074 88.0106L55.2084 79.5358L56.3023 73.9081L99.9013 82.3829L98.8074 88.0106Z" fill="black"/>
<line x1="52.3334" y1="178.103" x2="61.4348" y2="201.767" stroke="black" stroke-width="5"/>
</g>
<g filter="url(#filter3_d_128_45)">
<rect x="125.337" y="3" width="172" height="81" fill="#00F0FF"/>
<path d="M137.834 26.562V21.585H144.26V26.562H137.834ZM137.834 48.927V43.95H144.26V48.927H137.834ZM150.938 37.146V33.366H156.671V37.146H150.938ZM156.671 33.366H150.938C150.938 31.182 150.329 29.502 149.111 28.326C147.935 27.15 146.297 26.562 144.197 26.562V21.585C146.675 21.585 148.838 22.089 150.686 23.097C152.576 24.063 154.046 25.449 155.096 27.255C156.146 29.019 156.671 31.056 156.671 33.366ZM156.671 37.083C156.671 39.435 156.146 41.493 155.096 43.257C154.046 45.021 152.576 46.407 150.686 47.415C148.838 48.423 146.675 48.927 144.197 48.927V43.95C146.297 43.95 147.935 43.341 149.111 42.123C150.329 40.905 150.938 39.225 150.938 37.083H156.671ZM134.117 66V21.585H139.85V66H134.117ZM179.303 55.164V32.358H185.036V55.164H179.303ZM160.151 55.164V32.358H165.884V55.164H160.151ZM185.036 32.421H179.303C179.303 30.237 178.694 28.557 177.476 27.381C176.3 26.205 174.662 25.617 172.562 25.617V20.64C175.04 20.64 177.203 21.144 179.051 22.152C180.941 23.118 182.411 24.504 183.461 26.31C184.511 28.074 185.036 30.111 185.036 32.421ZM160.151 32.421C160.151 30.111 160.676 28.074 161.726 26.31C162.776 24.504 164.246 23.118 166.136 22.152C168.026 21.144 170.189 20.64 172.625 20.64V25.617C170.525 25.617 168.866 26.205 167.648 27.381C166.472 28.557 165.884 30.237 165.884 32.421H160.151ZM185.036 55.101C185.036 57.453 184.511 59.511 183.461 61.275C182.411 63.039 180.941 64.425 179.051 65.433C177.203 66.441 175.04 66.945 172.562 66.945V61.968C174.662 61.968 176.3 61.38 177.476 60.204C178.694 58.986 179.303 57.285 179.303 55.101H185.036ZM160.151 55.101H165.884C165.884 57.285 166.472 58.986 167.648 60.204C168.866 61.38 170.525 61.968 172.625 61.968V66.945C170.189 66.945 168.026 66.441 166.136 65.433C164.246 64.425 162.776 63.039 161.726 61.275C160.676 59.511 160.151 57.453 160.151 55.101ZM191.014 66V21.585H196.747V66H191.014ZM201.815 61.023L220.148 26.562H226.196L207.926 61.023H201.815ZM201.815 66V61.023H226.196V66H201.815ZM201.815 26.562V21.585H226.196V26.562H201.815ZM249.43 55.164V32.358H255.163V55.164H249.43ZM230.278 55.164V32.358H236.011V55.164H230.278ZM255.163 32.421H249.43C249.43 30.237 248.821 28.557 247.603 27.381C246.427 26.205 244.789 25.617 242.689 25.617V20.64C245.167 20.64 247.33 21.144 249.178 22.152C251.068 23.118 252.538 24.504 253.588 26.31C254.638 28.074 255.163 30.111 255.163 32.421ZM230.278 32.421C230.278 30.111 230.803 28.074 231.853 26.31C232.903 24.504 234.373 23.118 236.263 22.152C238.153 21.144 240.316 20.64 242.752 20.64V25.617C240.652 25.617 238.993 26.205 237.775 27.381C236.599 28.557 236.011 30.237 236.011 32.421H230.278ZM255.163 55.101C255.163 57.453 254.638 59.511 253.588 61.275C252.538 63.039 251.068 64.425 249.178 65.433C247.33 66.441 245.167 66.945 242.689 66.945V61.968C244.789 61.968 246.427 61.38 247.603 60.204C248.821 58.986 249.43 57.285 249.43 55.101H255.163ZM230.278 55.101H236.011C236.011 57.285 236.599 58.986 237.775 60.204C238.993 61.38 240.652 61.968 242.752 61.968V66.945C240.316 66.945 238.153 66.441 236.263 65.433C234.373 64.425 232.903 63.039 231.853 61.275C230.803 59.511 230.278 57.453 230.278 55.101ZM279.348 66L261.582 21.585H267.189L284.955 66H279.348ZM260.511 66V21.585H266.244V66H260.511ZM280.86 66V21.585H286.593V66H280.86Z" fill="black"/>
<line x1="181.923" y1="35.932" x2="162.923" y2="51.5356" stroke="black" stroke-width="5"/>
</g>
<defs>
<filter id="filter0_d_128_45" x="126.337" y="162" width="190" height="99" filterUnits="userSpaceOnUse" color-interpolation-filters="sRGB">
<feFlood flood-opacity="0" result="BackgroundImageFix"/>
<feColorMatrix in="SourceAlpha" type="matrix" values="0 0 0 0 0 0 0 0 0 0 0 0 0 0 0 0 0 0 127 0" result="hardAlpha"/>
<feOffset dx="4" dy="6"/>
<feGaussianBlur stdDeviation="4.5"/>
<feComposite in2="hardAlpha" operator="out"/>
<feColorMatrix type="matrix" values="0 0 0 0 0 0 0 0 0 0 0 0 0 0 0 0 0 0 0.5 0"/>
<feBlend mode="normal" in2="BackgroundImageFix" result="effect1_dropShadow_128_45"/>
<feBlend mode="normal" in="SourceGraphic" in2="effect1_dropShadow_128_45" result="shape"/>
</filter>
<filter id="filter1_d_128_45" x="181.337" y="81" width="190" height="99" filterUnits="userSpaceOnUse" color-interpolation-filters="sRGB">
<feFlood flood-opacity="0" result="BackgroundImageFix"/>
<feColorMatrix in="SourceAlpha" type="matrix" values="0 0 0 0 0 0 0 0 0 0 0 0 0 0 0 0 0 0 127 0" result="hardAlpha"/>
<feOffset dx="4" dy="6"/>
<feGaussianBlur stdDeviation="4.5"/>
<feComposite in2="hardAlpha" operator="out"/>
<feColorMatrix type="matrix" values="0 0 0 0 0 0 0 0 0 0 0 0 0 0 0 0 0 0 0.5 0"/>
<feBlend mode="normal" in2="BackgroundImageFix" result="effect1_dropShadow_128_45"/>
<feBlend mode="normal" in="SourceGraphic" in2="effect1_dropShadow_128_45" result="shape"/>
</filter>
<filter id="filter2_d_128_45" x="0" y="41.1091" width="135.674" height="229.781" filterUnits="userSpaceOnUse" color-interpolation-filters="sRGB">
<feFlood flood-opacity="0" result="BackgroundImageFix"/>
<feColorMatrix in="SourceAlpha" type="matrix" values="0 0 0 0 0 0 0 0 0 0 0 0 0 0 0 0 0 0 127 0" result="hardAlpha"/>
<feOffset dx="4" dy="6"/>
<feGaussianBlur stdDeviation="4.5"/>
<feComposite in2="hardAlpha" operator="out"/>
<feColorMatrix type="matrix" values="0 0 0 0 0 0 0 0 0 0 0 0 0 0 0 0 0 0 0.5 0"/>
<feBlend mode="normal" in2="BackgroundImageFix" result="effect1_dropShadow_128_45"/>
<feBlend mode="normal" in="SourceGraphic" in2="effect1_dropShadow_128_45" result="shape"/>
</filter>
<filter id="filter3_d_128_45" x="120.337" y="0" width="190" height="99" filterUnits="userSpaceOnUse" color-interpolation-filters="sRGB">
<feFlood flood-opacity="0" result="BackgroundImageFix"/>
<feColorMatrix in="SourceAlpha" type="matrix" values="0 0 0 0 0 0 0 0 0 0 0 0 0 0 0 0 0 0 127 0" result="hardAlpha"/>
<feOffset dx="4" dy="6"/>
<feGaussianBlur stdDeviation="4.5"/>
<feComposite in2="hardAlpha" operator="out"/>
<feColorMatrix type="matrix" values="0 0 0 0 0 0 0 0 0 0 0 0 0 0 0 0 0 0 0.5 0"/>
<feBlend mode="normal" in2="BackgroundImageFix" result="effect1_dropShadow_128_45"/>
<feBlend mode="normal" in="SourceGraphic" in2="effect1_dropShadow_128_45" result="shape"/>
</filter>
</defs>
</svg>
