<svg width="28" height="28" viewBox="0 0 28 28" fill="none" xmlns="http://www.w3.org/2000/svg">
<g clip-path="url(#clip0_549_64)">
<path d="M14 0C11.2311 0 8.52431 0.821086 6.22202 2.35943C3.91973 3.89777 2.12532 6.08427 1.06569 8.64243C0.00606593 11.2006 -0.271181 14.0155 0.269012 16.7313C0.809205 19.447 2.14258 21.9416 4.10051 23.8995C6.05845 25.8574 8.55301 27.1908 11.2687 27.731C13.9845 28.2712 16.7994 27.9939 19.3576 26.9343C21.9157 25.8747 24.1022 24.0803 25.6406 21.778C27.1789 19.4757 28 16.7689 28 14C27.996 10.2882 26.5197 6.72961 23.895 4.10498C21.2704 1.48035 17.7118 0.00405312 14 0ZM14 26.6875C11.4907 26.6875 9.03766 25.9434 6.95121 24.5493C4.86476 23.1551 3.23857 21.1736 2.27828 18.8553C1.318 16.537 1.06674 13.9859 1.55629 11.5248C2.04584 9.06366 3.25421 6.80296 5.02859 5.02858C6.80297 3.2542 9.06366 2.04584 11.5248 1.55629C13.9859 1.06674 16.537 1.31799 18.8553 2.27828C21.1736 3.23857 23.1552 4.86475 24.5493 6.9512C25.9434 9.03765 26.6875 11.4906 26.6875 14C26.6835 17.3637 25.3454 20.5885 22.9669 22.9669C20.5885 25.3454 17.3637 26.6834 14 26.6875Z" fill="#FB32FF"/>
<path d="M20.1513 7.82906C20.0282 7.70617 19.8615 7.63714 19.6875 7.63714C19.5136 7.63714 19.3468 7.70617 19.2238 7.82906L14 13.0703L8.77848 7.82031C8.6552 7.69703 8.48799 7.62777 8.31364 7.62777C8.13929 7.62777 7.97208 7.69703 7.84879 7.82031C7.72551 7.9436 7.65625 8.11081 7.65625 8.28516C7.65625 8.45951 7.72551 8.62672 7.84879 8.75L13.0725 14L7.84879 19.25C7.7258 19.3733 7.65682 19.5404 7.65702 19.7145C7.65723 19.8887 7.7266 20.0556 7.84989 20.1786C7.97317 20.3016 8.14027 20.3706 8.31441 20.3704C8.48856 20.3702 8.65549 20.3008 8.77848 20.1775L14 14.9297L19.2238 20.1797C19.3471 20.303 19.5143 20.3722 19.6886 20.3722C19.863 20.3722 20.0302 20.303 20.1535 20.1797C20.2768 20.0564 20.346 19.8892 20.346 19.7148C20.346 19.5405 20.2768 19.3733 20.1535 19.25L14.9275 14L20.1535 8.75C20.2741 8.62695 20.3415 8.46139 20.3411 8.28908C20.3406 8.11678 20.2725 7.95155 20.1513 7.82906Z" fill="#FB32FF"/>
</g>
<defs>
<clipPath id="clip0_549_64">
<rect width="28" height="28" fill="white"/>
</clipPath>
</defs>
</svg>
