<svg width="470" height="361" viewBox="0 0 470 361" fill="none" xmlns="http://www.w3.org/2000/svg">
<path opacity="0.56" d="M83.398 310.463C74.4372 315.815 67.019 319.205 61.1434 320.635C55.1967 321.947 50.5183 319.783 47.1081 314.141C43.6269 308.382 44.0184 303.19 48.2827 298.564C52.4758 293.82 59.1707 288.701 68.3673 283.209L76.5028 278.35C84.992 273.28 92.1865 270.183 98.0862 269.058C104.033 267.746 108.676 269.852 112.015 275.376C115.283 280.782 115.033 285.81 111.264 290.46C107.614 295.04 101.78 299.724 93.7623 304.513L83.398 310.463ZM178.077 298.544C171.946 302.206 166.876 304.835 162.865 306.43C158.784 307.908 155.137 308.246 151.925 307.446C148.642 306.527 145.757 304.011 143.27 299.898C140.642 295.549 139.548 291.484 139.99 287.701C140.431 283.918 141.967 278.761 144.599 272.231L148.51 261.977C152.595 249.62 155.385 239.635 156.882 232.023C158.307 224.293 157.528 217.96 154.544 213.024C152.697 209.969 150.191 207.946 147.025 206.957C143.978 205.898 141.039 206.214 138.21 207.904C135.144 209.735 133.33 211.778 132.768 214.033C132.323 216.218 132.257 218.497 132.568 220.871C132.927 223.056 133.178 224.666 133.321 225.7C133.8 229.413 133.075 232.725 131.144 235.638C129.214 238.55 126.716 240.922 123.651 242.753C118.934 245.569 113.895 246.259 108.534 244.823C103.29 243.316 98.6789 239.272 94.7004 232.69C90.2956 225.403 88.4983 217.519 89.3085 209.037C90.0477 200.437 92.9598 192.38 98.0449 184.864C103.177 177.16 109.751 170.914 117.769 166.125C125.551 161.477 133.95 158.78 142.967 158.034C152.03 157.1 160.733 158.621 169.074 162.597C177.344 166.455 184.178 172.851 189.578 181.783C194.622 190.127 197.143 200.139 197.142 211.817C197.187 223.307 194.74 233.726 189.8 243.075C199.35 237.371 207.324 234.368 213.721 234.067C220.118 233.765 225.164 236.67 228.858 242.782C231.984 247.953 232.796 252.747 231.293 257.164C229.791 261.58 226.199 266.125 220.519 270.797C214.838 275.469 206.374 281.244 195.126 288.122L178.077 298.544ZM280.694 236.537C275.86 239.424 270.588 241.453 264.877 242.624C259.166 243.796 253.925 243.887 249.155 242.897C244.431 241.719 240.968 239.308 238.766 235.665C236.847 232.492 236.298 229.061 237.117 225.372C237.936 221.684 240.468 218.572 244.713 216.037C246.599 214.91 248.274 214.23 249.738 213.996C251.13 213.644 252.758 213.551 254.624 213.717C256.725 213.742 258.507 213.637 259.97 213.403C261.551 213.098 263.403 212.312 265.525 211.045C270.124 208.298 272.974 204.917 274.076 200.899C275.296 196.812 274.982 193.24 273.135 190.184C270.364 185.6 266.723 182.896 262.213 182.071C257.82 181.175 252.912 182.347 247.488 185.586C245.484 186.784 243.87 188.228 242.645 189.919C241.35 191.492 240.09 193.524 238.868 196.014C237.645 198.504 236.421 200.594 235.197 202.285C233.972 203.976 232.299 205.456 230.177 206.723C224.635 210.033 219.973 210.418 216.191 207.878C212.409 205.338 208.28 200.365 203.804 192.961L198.689 184.499C188.814 168.163 182.787 158.325 180.609 154.987C177.341 149.581 176.717 144.035 178.736 138.35C180.756 132.665 184.83 127.593 190.96 123.132C196.524 119.329 205.673 113.625 218.407 106.019C226.424 101.231 233.204 97.5811 238.748 95.0704C244.291 92.5596 249.506 91.3644 254.393 91.4849C259.398 91.535 263.321 93.9106 266.163 98.6117C269.289 103.783 269.345 108.788 266.333 113.626C263.438 118.395 258.596 123.126 251.805 127.822C245.133 132.446 234.487 139.125 219.867 147.857L228.818 162.665C233.579 158.063 238.435 154.283 243.387 151.325C251.404 146.537 259.532 143.922 267.77 143.48C275.937 142.921 283.601 144.583 290.762 148.464C297.851 152.228 303.705 157.93 308.323 165.569C314.433 175.676 316.352 185.488 314.08 195.002C311.808 204.517 307.432 212.809 300.954 219.878C294.404 226.829 287.651 232.382 280.694 236.537ZM379.151 101.672C378.933 123.877 378.61 140.066 378.18 150.24C377.798 160.226 376.986 167.909 375.745 173.289C374.622 178.599 372.763 182.028 370.17 183.577C368.165 184.775 365.699 185.208 362.771 184.877C359.843 184.546 357.669 183.206 356.248 180.855C353.974 177.094 352.603 169.915 352.135 159.317C351.666 148.72 351.536 129.922 351.745 102.924C351.964 81.5185 352.312 65.6347 352.788 55.2728C353.311 44.7229 354.193 36.758 355.434 31.3779C356.675 25.9979 358.592 22.5332 361.186 20.984C363.191 19.7869 365.598 19.3889 368.408 19.7901C371.265 20.0033 373.404 21.2852 374.825 23.6358C377.098 27.3967 378.469 34.5759 378.938 45.1733C379.335 55.6533 379.406 74.4862 379.151 101.672ZM325.964 121.201C320.305 124.581 314.453 126.316 308.41 126.406C302.367 126.497 296.722 124.989 291.475 121.885C286.346 118.709 282.112 114.36 278.773 108.836C275.576 103.547 273.936 98.0479 273.855 92.338C273.891 86.5578 275.344 81.1309 278.215 76.0573C281.203 70.9132 285.468 66.6864 291.01 63.3767C296.552 60.067 302.344 58.367 308.387 58.2767C314.36 58.0689 319.969 59.5174 325.216 62.6222C330.51 65.5391 334.826 69.7595 338.165 75.2833C341.291 80.4546 342.872 85.9891 342.906 91.8869C342.988 97.5967 341.57 103.082 338.653 108.344C335.853 113.535 331.624 117.821 325.964 121.201ZM313.85 100.363C315.382 99.4478 316.383 98.0504 316.852 96.1709C317.32 94.2914 317.093 92.5878 316.169 91.0599C315.174 89.4145 313.732 88.3562 311.843 87.8851C309.953 87.414 308.242 87.6362 306.709 88.5517C305.177 89.4671 304.176 90.8646 303.707 92.744C303.239 94.6235 303.502 96.3859 304.496 98.0314C305.42 99.5592 306.827 100.559 308.716 101.03C310.606 101.501 312.317 101.279 313.85 100.363ZM439.992 141.396C434.333 144.776 428.481 146.511 422.438 146.602C416.394 146.692 410.749 145.185 405.503 142.08C400.374 138.904 396.14 134.555 392.801 129.031C389.604 123.742 387.964 118.243 387.883 112.533C387.919 106.753 389.372 101.326 392.243 96.2523C395.231 91.1083 399.496 86.8815 405.038 83.5718C410.579 80.2621 416.372 78.5621 422.415 78.4718C428.388 78.264 433.997 79.7125 439.244 82.8173C444.538 85.7342 448.854 89.9546 452.193 95.4784C455.319 100.65 456.899 106.184 456.934 112.082C457.016 117.792 455.598 123.278 452.68 128.539C449.881 133.73 445.652 138.016 439.992 141.396ZM427.877 120.558C429.41 119.643 430.411 118.245 430.879 116.366C431.348 114.487 431.12 112.783 430.197 111.255C429.202 109.61 427.76 108.551 425.871 108.08C423.981 107.609 422.27 107.831 420.737 108.747C419.205 109.662 418.204 111.06 417.735 112.939C417.267 114.819 417.53 116.581 418.524 118.226C419.448 119.754 420.854 120.754 422.744 121.225C424.633 121.696 426.345 121.474 427.877 120.558Z" fill="#FF0004" fill-opacity="0.34"/>
</svg>
