<svg width="587" height="487" viewBox="0 0 587 487" fill="none" xmlns="http://www.w3.org/2000/svg">
<g clip-path="url(#clip0_62_260)">
<path d="M127.183 392.175C100.168 392.175 78.2667 413.33 78.2667 439.425C78.2667 465.52 100.168 486.675 127.183 486.675C154.199 486.675 176.1 465.52 176.1 439.425C176.1 413.33 154.199 392.175 127.183 392.175ZM127.183 458.325C116.376 458.325 107.617 449.864 107.617 439.425C107.617 428.986 116.376 420.525 127.183 420.525C137.99 420.525 146.75 428.986 146.75 439.425C146.75 449.864 137.99 458.325 127.183 458.325Z" fill="#787680"/>
<path d="M127.183 458.325C137.99 458.325 146.75 449.863 146.75 439.425C146.75 428.987 137.99 420.525 127.183 420.525C116.377 420.525 107.617 428.987 107.617 439.425C107.617 449.863 116.377 458.325 127.183 458.325Z" fill="#787680"/>
<path d="M381.55 155.925V61.425H9.78333V439.425H78.2667C78.2667 413.33 100.168 392.175 127.183 392.175C154.199 392.175 176.1 413.33 176.1 439.425H381.55V155.925Z" fill="#00F0FF"/>
<path d="M381.55 155.925V316.575H577.217V231.525L440.25 155.925H381.55ZM538.083 278.775H420.683V193.725H429.85L538.083 253.458V278.775Z" fill="#919097"/>
<path d="M420.683 193.725V278.775H538.083V253.459L429.85 193.725H420.683Z" fill="#E0E0E2"/>
<path d="M479.383 392.175C452.368 392.175 430.467 413.33 430.467 439.425C430.467 465.52 452.368 486.675 479.383 486.675C506.399 486.675 528.3 465.52 528.3 439.425C528.3 413.33 506.399 392.175 479.383 392.175ZM479.383 458.325C468.576 458.325 459.817 449.864 459.817 439.425C459.817 428.986 468.576 420.525 479.383 420.525C490.19 420.525 498.95 428.986 498.95 439.425C498.95 449.864 490.19 458.325 479.383 458.325Z" fill="#787680"/>
<path d="M479.383 458.325C490.19 458.325 498.95 449.863 498.95 439.425C498.95 428.987 490.19 420.525 479.383 420.525C468.577 420.525 459.817 428.987 459.817 439.425C459.817 449.863 468.577 458.325 479.383 458.325Z" fill="#787680"/>
<path d="M381.55 439.425H430.467C430.467 413.33 452.368 392.175 479.383 392.175C506.399 392.175 528.3 413.33 528.3 439.425H577.217V316.575H381.55V439.425Z" fill="#898890"/>
<path d="M127.183 411.075C110.974 411.075 97.8333 423.768 97.8333 439.425C97.8333 455.083 110.974 467.775 127.183 467.775C143.393 467.775 156.533 455.083 156.533 439.425C156.533 423.768 143.393 411.075 127.183 411.075ZM127.183 448.875C121.78 448.875 117.4 444.644 117.4 439.425C117.4 434.206 121.78 429.975 127.183 429.975C132.586 429.975 136.967 434.206 136.967 439.425C136.967 444.644 132.586 448.875 127.183 448.875Z" fill="#231F20"/>
<path d="M479.383 411.075C463.174 411.075 450.033 423.768 450.033 439.425C450.033 455.083 463.174 467.775 479.383 467.775C495.593 467.775 508.733 455.083 508.733 439.425C508.733 423.768 495.593 411.075 479.383 411.075ZM479.383 448.875C473.98 448.875 469.6 444.644 469.6 439.425C469.6 434.206 473.98 429.975 479.383 429.975C484.786 429.975 489.167 434.206 489.167 439.425C489.167 444.644 484.786 448.875 479.383 448.875Z" fill="#231F20"/>
<path d="M582.108 223.322L445.142 147.722C443.652 146.899 441.966 146.469 440.25 146.475H391.333V61.4251C391.333 56.2063 386.953 51.9751 381.55 51.9751H9.78333C4.38049 51.9751 0 56.2063 0 61.4251V439.425C0 444.644 4.38049 448.875 9.78333 448.875H69.3638C74.7349 479.72 104.975 500.519 136.908 495.331C161.551 491.328 180.858 472.678 185.003 448.875H421.564C426.935 479.72 457.175 500.519 489.108 495.331C513.751 491.328 533.058 472.678 537.203 448.875H577.217C582.62 448.875 587 444.644 587 439.425V231.525C587.007 228.142 585.141 225.014 582.108 223.322ZM437.648 165.375L567.433 237.006V307.125H391.333V165.375H437.648ZM19.5667 70.8751H371.767V429.975H185.071C185.071 429.758 184.944 429.559 184.895 429.342C184.362 426.496 183.603 423.693 182.625 420.96C182.449 420.468 182.254 420.015 182.068 419.486C181.026 416.801 179.777 414.194 178.331 411.689C178.115 411.33 177.881 410.99 177.665 410.631C176.107 408.061 174.345 405.612 172.392 403.307L172.226 403.128C170.246 400.856 168.084 398.739 165.759 396.796C165.495 396.569 165.26 396.333 164.996 396.125C162.709 394.274 160.278 392.593 157.727 391.098C157.296 390.843 156.876 390.587 156.436 390.342C153.88 388.912 151.214 387.675 148.462 386.637L147.004 386.118C144.137 385.115 141.193 384.328 138.199 383.765C137.808 383.689 137.417 383.651 137.025 383.585C130.511 382.438 123.836 382.438 117.322 383.585C116.93 383.651 116.539 383.689 116.148 383.765C113.154 384.328 110.21 385.115 107.343 386.118L105.885 386.637C103.133 387.675 100.468 388.912 97.9116 390.342C97.4714 390.587 97.0507 390.843 96.6202 391.098C94.0692 392.593 91.638 394.274 89.3512 396.125C89.087 396.333 88.8522 396.569 88.5881 396.796C86.2633 398.739 84.1012 400.856 82.1213 403.128L81.955 403.307C79.9995 405.613 78.2361 408.065 76.6818 410.64C76.4665 410.99 76.2317 411.33 76.0263 411.689C74.571 414.191 73.3187 416.797 72.2793 419.486C72.0934 419.977 71.8977 420.431 71.7216 420.96C70.7445 423.693 69.9851 426.496 69.4519 429.342C69.403 429.559 69.3149 429.758 69.2758 429.975H19.5667V70.8751ZM127.183 477.225C105.571 477.225 88.05 460.301 88.05 439.425C88.05 418.549 105.571 401.625 127.183 401.625C148.796 401.625 166.317 418.549 166.317 439.425C166.317 460.301 148.796 477.225 127.183 477.225ZM479.383 477.225C457.771 477.225 440.25 460.301 440.25 439.425C440.25 418.549 457.771 401.625 479.383 401.625C500.996 401.625 518.517 418.549 518.517 439.425C518.517 460.301 500.996 477.225 479.383 477.225ZM567.433 429.975H537.271C537.271 429.758 537.144 429.559 537.095 429.342C536.562 426.496 535.803 423.693 534.826 420.96C534.649 420.468 534.454 420.015 534.268 419.486C533.226 416.801 531.977 414.194 530.531 411.689C530.315 411.33 530.081 410.99 529.865 410.631C528.307 408.061 526.545 405.612 524.592 403.307L524.426 403.128C522.446 400.856 520.284 398.739 517.959 396.796C517.695 396.569 517.46 396.333 517.196 396.125C514.909 394.274 512.478 392.593 509.927 391.098C509.496 390.843 509.076 390.587 508.636 390.342C506.08 388.912 503.414 387.675 500.662 386.637L499.204 386.118C496.337 385.115 493.393 384.328 490.399 383.765C490.008 383.689 489.617 383.651 489.225 383.585C482.711 382.438 476.036 382.438 469.522 383.585C469.13 383.651 468.739 383.689 468.348 383.765C465.354 384.328 462.41 385.115 459.543 386.118L458.085 386.637C455.333 387.675 452.668 388.912 450.112 390.342C449.671 390.587 449.251 390.843 448.82 391.098C446.269 392.593 443.838 394.274 441.551 396.125C441.287 396.333 441.052 396.569 440.788 396.796C438.463 398.739 436.301 400.856 434.321 403.128L434.155 403.307C432.2 405.613 430.436 408.065 428.882 410.64C428.667 410.99 428.432 411.33 428.226 411.689C426.771 414.191 425.519 416.797 424.479 419.486C424.293 419.977 424.098 420.431 423.922 420.96C422.945 423.693 422.185 426.496 421.652 429.342C421.603 429.559 421.515 429.758 421.476 429.975H391.333V326.025H567.433V429.975Z" fill="#231F20"/>
<path d="M420.683 288.225H538.083C543.486 288.225 547.867 283.994 547.867 278.775V253.459C547.874 250.076 546.008 246.948 542.975 245.256L434.713 185.523C433.223 184.699 431.537 184.269 429.821 184.275H420.683C415.28 184.275 410.9 188.506 410.9 193.725V278.775C410.9 283.994 415.28 288.225 420.683 288.225ZM430.467 204.952L528.3 258.93V269.325H430.467V204.952Z" fill="#231F20"/>
</g>
<defs>
<clipPath id="clip0_62_260">
<rect width="587" height="487" fill="white"/>
</clipPath>
</defs>
</svg>
