<svg width="91" height="91" viewBox="0 0 91 91" fill="none" xmlns="http://www.w3.org/2000/svg">
<path d="M45.4999 85.3125C67.4877 85.3125 85.3124 67.4878 85.3124 45.5C85.3124 23.5122 67.4877 5.6875 45.4999 5.6875C23.512 5.6875 5.68738 23.5122 5.68738 45.5C5.68738 67.4878 23.512 85.3125 45.4999 85.3125Z" fill="white"/>
<path d="M65.368 29.0313C65.7223 26.7407 63.5446 24.9327 61.5079 25.8269L20.9436 43.6368C19.4831 44.278 19.5899 46.4905 21.1047 46.9728L29.4699 49.6368C31.0667 50.1453 32.7954 49.8822 34.1897 48.919L53.05 35.889C53.6188 35.496 54.2387 36.3047 53.7527 36.8055L40.1767 50.8025C38.8597 52.1603 39.1211 54.4612 40.7053 55.4545L55.9051 64.9862C57.61 66.0552 59.8031 64.9814 60.1219 62.9211L65.368 29.0313Z" fill="#37BBFE"/>
</svg>
